<svg width="256" height="256" viewBox="0 0 256 256" xmlns="http://www.w3.org/2000/svg">
  <defs>
    <linearGradient id="bgGradient" x1="0%" y1="0%" x2="100%" y2="100%">
      <stop offset="0%" style="stop-color:#1a1a2e;stop-opacity:1" />
      <stop offset="50%" style="stop-color:#16213e;stop-opacity:1" />
      <stop offset="100%" style="stop-color:#0f3460;stop-opacity:1" />
    </linearGradient>
    <radialGradient id="glowGradient" cx="50%" cy="50%" r="50%">
      <stop offset="0%" style="stop-color:#ff6b6b;stop-opacity:0.8" />
      <stop offset="100%" style="stop-color:#ff6b6b;stop-opacity:0" />
    </radialGradient>
    <filter id="glow">
      <feGaussianBlur stdDeviation="3" result="coloredBlur"/>
      <feMerge> 
        <feMergeNode in="coloredBlur"/>
        <feMergeNode in="SourceGraphic"/>
      </feMerge>
    </filter>
  </defs>
  
  <!-- Background circle -->
  <circle cx="128" cy="128" r="120" fill="url(#bgGradient)" stroke="#ff6b6b" stroke-width="4"/>
  
  <!-- Glow effect -->
  <circle cx="128" cy="128" r="80" fill="url(#glowGradient)" filter="url(#glow)"/>
  
  <!-- Japanese lantern -->
  <g transform="translate(128, 128) scale(0.8)">
    <!-- Lantern body -->
    <ellipse cx="0" cy="0" rx="45" ry="60" fill="#ff4757" stroke="#ff6b6b" stroke-width="3"/>
    
    <!-- Lantern frame top -->
    <path d="M -35 -40 Q 0 -50 35 -40" stroke="#ffd93d" stroke-width="4" fill="none"/>
    <path d="M -35 -20 Q 0 -30 35 -20" stroke="#ffd93d" stroke-width="3" fill="none"/>
    
    <!-- Lantern frame bottom -->
    <path d="M -35 40 Q 0 50 35 40" stroke="#ffd93d" stroke-width="4" fill="none"/>
    <path d="M -35 20 Q 0 30 35 20" stroke="#ffd93d" stroke-width="3" fill="none"/>
    
    <!-- Vertical frame lines -->
    <line x1="-35" y1="-40" x2="-35" y2="40" stroke="#ffd93d" stroke-width="3"/>
    <line x1="35" y1="-40" x2="35" y2="40" stroke="#ffd93d" stroke-width="3"/>
    
    <!-- Center light -->
    <circle cx="0" cy="0" r="20" fill="#fff5b4" opacity="0.9"/>
    <circle cx="0" cy="0" r="15" fill="#fff9c4" opacity="0.7"/>
    
    <!-- Hanging string -->
    <line x1="0" y1="-50" x2="0" y2="-70" stroke="#ffd93d" stroke-width="3"/>
    <circle cx="0" cy="-75" r="5" fill="#ffd93d"/>
  </g>
  
  <!-- Cherry blossoms -->
  <g transform="translate(60, 60) scale(0.3)">
    <circle cx="0" cy="0" r="8" fill="#ffb7c5"/>
    <circle cx="-6" cy="-3" r="6" fill="#ffb7c5"/>
    <circle cx="6" cy="-3" r="6" fill="#ffb7c5"/>
    <circle cx="-3" cy="3" r="6" fill="#ffb7c5"/>
    <circle cx="3" cy="3" r="6" fill="#ffb7c5"/>
    <circle cx="0" cy="0" r="3" fill="#ffd4e5"/>
  </g>
  
  <g transform="translate(180, 70) scale(0.25)">
    <circle cx="0" cy="0" r="8" fill="#ffb7c5"/>
    <circle cx="-6" cy="-3" r="6" fill="#ffb7c5"/>
    <circle cx="6" cy="-3" r="6" fill="#ffb7c5"/>
    <circle cx="-3" cy="3" r="6" fill="#ffb7c5"/>
    <circle cx="3" cy="3" r="6" fill="#ffb7c5"/>
    <circle cx="0" cy="0" r="3" fill="#ffd4e5"/>
  </g>
  
  <!-- Subtle sparkle effects -->
  <circle cx="80" cy="80" r="2" fill="#fff" opacity="0.7">
    <animate attributeName="opacity" values="0.7;0.1;0.7" dur="2s" repeatCount="indefinite"/>
  </circle>
  <circle cx="170" cy="90" r="2" fill="#fff" opacity="0.7">
    <animate attributeName="opacity" values="0.7;0.1;0.7" dur="2.5s" repeatCount="indefinite"/>
  </circle>
  <circle cx="90" cy="170" r="2" fill="#fff" opacity="0.7">
    <animate attributeName="opacity" values="0.7;0.1;0.7" dur="3s" repeatCount="indefinite"/>
  </circle>
</svg>